<svg width="16" height="12" viewBox="0 0 16 12" fill="none" xmlns="http://www.w3.org/2000/svg">
<path d="M14 3.34375C13.6875 3.34375 13.4167 3.4375 13.1875 3.625C12.9792 3.79167 12.8229 4.01042 12.7188 4.28125C12.6354 4.53125 12.6354 4.77083 12.7188 5L10.3438 7.375C10.1146 7.3125 9.88542 7.3125 9.65625 7.375L7.96875 5.6875C8.03125 5.4375 8.02083 5.1875 7.9375 4.9375C7.85417 4.66667 7.69792 4.44792 7.46875 4.28125C7.26042 4.09375 6.98958 4 6.65625 4C6.34375 4 6.07292 4.09375 5.84375 4.28125C5.63542 4.44792 5.48958 4.66667 5.40625 4.9375C5.32292 5.1875 5.3125 5.4375 5.375 5.6875L2.34375 8.71875C2.09375 8.63542 1.84375 8.64583 1.59375 8.75C1.34375 8.83333 1.125 8.98958 0.9375 9.21875C0.75 9.42708 0.65625 9.6875 0.65625 10C0.65625 10.375 0.78125 10.6979 1.03125 10.9688C1.30208 11.2188 1.625 11.3438 2 11.3438C2.3125 11.3438 2.57292 11.25 2.78125 11.0625C3.01042 10.875 3.16667 10.6562 3.25 10.4062C3.35417 10.1562 3.36458 9.90625 3.28125 9.65625L6.3125 6.625C6.54167 6.6875 6.77083 6.6875 7 6.625L8.71875 8.3125C8.63542 8.5625 8.63542 8.82292 8.71875 9.09375C8.80208 9.34375 8.94792 9.5625 9.15625 9.75C9.38542 9.91667 9.66667 10 10 10C10.3125 10 10.5729 9.91667 10.7812 9.75C11.0104 9.5625 11.1667 9.34375 11.25 9.09375C11.3542 8.82292 11.3646 8.5625 11.2812 8.3125L13.6562 5.96875C13.9062 6.03125 14.1562 6.02083 14.4062 5.9375C14.6562 5.85417 14.875 5.70833 15.0625 5.5C15.25 5.27083 15.3438 4.98958 15.3438 4.65625C15.3438 4.30208 15.2083 4 14.9375 3.75C14.6875 3.47917 14.375 3.34375 14 3.34375ZM10 4L10.625 2.625L12 2L10.625 1.375L10 0L9.375 1.375L8 2L9.375 2.625L10 4ZM2.34375 5.34375L2.65625 4L4 3.65625L2.65625 3.34375L2.34375 2L2 3.34375L0.65625 3.65625L2 4L2.34375 5.34375Z" fill="#1AACF0"/>
</svg>
