<svg width="39" height="40" viewBox="0 0 39 40" fill="none" xmlns="http://www.w3.org/2000/svg">
<path d="M0 5C0 2.23858 2.23858 0 5 0H40V35C40 37.7614 37.7614 40 35 40H0V5Z" fill="#1AACF0"/>
<path d="M8.50571 14.1272C8.56418 12.8497 8.7642 12.0258 9.03471 11.3265L9.03835 11.3168C9.30641 10.6051 9.72635 9.96041 10.2689 9.42754L10.2765 9.42006L10.284 9.41245C10.8173 8.86918 11.4623 8.44965 12.1733 8.1823L12.1856 8.17761C12.8834 7.90625 13.7057 7.70696 14.9842 7.64851M8.50571 14.1272C8.44425 15.4922 8.42859 15.9153 8.42859 19.4543C8.42859 22.994 8.44339 23.4162 8.50568 24.7814M8.50571 14.1272V14.4715M9.03946 27.5924C9.30681 28.3034 9.72634 28.9483 10.2696 29.4817L10.2772 29.4892L10.2847 29.4967C10.8176 30.0393 11.4623 30.4593 12.174 30.7273L12.1846 30.7313C12.883 31.0022 13.7057 31.2015 14.9842 31.26M9.03946 27.5924L9.03478 27.58C8.76341 26.8823 8.56413 26.06 8.50568 24.7814M9.03946 27.5924L9.02344 27.5079M8.50568 24.7814L8.52661 24.8917M8.50568 24.7814V24.4363M9.02344 27.5079L8.52661 24.8917M9.02344 27.5079C8.81243 26.9505 8.59515 26.1727 8.52661 24.8917M9.02344 27.5079C9.03084 27.5275 9.03823 27.5468 9.04561 27.5658C9.3132 28.2872 9.73719 28.9404 10.2871 29.4784C10.825 30.0283 11.4779 30.4522 12.1991 30.7198C12.7778 30.9452 13.5933 31.1808 14.984 31.2445C16.3875 31.3084 16.8211 31.3214 20.3114 31.3214C23.8018 31.3214 24.2358 31.3084 25.6393 31.2445C27.0316 31.1807 27.8461 30.9438 28.4229 30.7202C29.1444 30.4527 29.7978 30.0285 30.3358 29.4784C30.8855 28.9405 31.3094 28.2877 31.577 27.5665C31.8024 26.9878 32.038 26.1724 32.1016 24.7817C32.1655 23.3782 32.1786 22.9437 32.1786 19.4543C32.1786 15.9648 32.1655 15.53 32.1016 14.1265C32.0375 12.7268 31.7985 11.911 31.5738 11.3338C31.28 10.5755 30.9075 10.0019 30.3349 9.42926C29.7634 8.85891 29.1914 8.48616 28.4324 8.1921C27.8531 7.96564 27.0369 7.72806 25.6393 7.664C25.5176 7.65848 25.4034 7.65333 25.2938 7.64853M8.52661 24.8917C8.52468 24.8555 8.52286 24.819 8.52116 24.782C8.51564 24.6604 8.51048 24.546 8.50568 24.4363M14.9842 7.64851C16.3495 7.58623 16.7724 7.57143 20.3114 7.57143C23.8504 7.57143 24.2731 7.58708 25.638 7.64853M14.9842 7.64851H15.3294M25.638 7.64853H25.2938M25.638 7.64853C26.9158 7.70698 27.7398 7.90698 28.4393 8.17751L28.4489 8.18119C29.1605 8.44925 29.8053 8.86919 30.3381 9.41176L30.3455 9.4193L30.3531 9.4267C30.8958 9.95961 31.3156 10.6045 31.5835 11.3164L31.588 11.3284C31.8594 12.0262 32.0588 12.8485 32.1171 14.127M15.3294 7.64851L25.2938 7.64853M15.3294 7.64851C16.4855 7.59796 17.1245 7.58709 20.3114 7.58709C23.4986 7.58709 24.1375 7.59798 25.2938 7.64853M15.3294 7.64851C15.2197 7.65331 15.1053 7.65848 14.9837 7.664C13.5912 7.72783 12.7767 7.96473 12.2 8.1884C11.4757 8.45689 10.8202 8.88313 10.281 9.43625C9.71375 10.0059 9.34244 10.5767 9.04931 11.3332C8.82283 11.9124 8.58521 12.7291 8.52115 14.1268C8.51564 14.2481 8.51049 14.3621 8.50571 14.4715M32.1171 24.7814C32.0588 26.0599 31.8594 26.8827 31.5885 27.581L31.5845 27.5917C31.3164 28.3034 30.8965 28.948 30.3539 29.4809L30.3463 29.4884L30.3389 29.496C29.8055 30.0393 29.1606 30.4588 28.4495 30.7262L28.4373 30.7309C27.7395 31.0023 26.9171 31.2015 25.6386 31.26M8.50568 24.4363C8.45513 23.2802 8.44425 22.6412 8.44425 19.4543C8.44425 16.2663 8.45513 15.6282 8.50571 14.4715M8.50568 24.4363L8.50571 14.4715M18.198 24.5565C18.868 24.834 19.5861 24.9769 20.3114 24.9769C21.7761 24.9769 23.1809 24.395 24.2166 23.3594C25.2523 22.3237 25.8341 20.9189 25.8341 19.4543C25.8341 17.9895 25.2523 16.5848 24.2166 15.5491C23.1809 14.5134 21.7761 13.9315 20.3114 13.9315C19.5861 13.9315 18.868 14.0744 18.198 14.3519C17.5279 14.6295 16.9191 15.0363 16.4063 15.5491C15.8935 16.0619 15.4867 16.6708 15.2091 17.3408C14.9316 18.0108 14.7887 18.729 14.7887 19.4543C14.7887 20.1795 14.9316 20.8977 15.2091 21.5677C15.4867 22.2378 15.8935 22.8465 16.4063 23.3594C16.9191 23.8722 17.5279 24.279 18.198 24.5565ZM16.394 15.5368C17.433 14.4978 18.8421 13.9141 20.3114 13.9141C21.7808 13.9141 23.1899 14.4978 24.2289 15.5368C25.2679 16.5758 25.8515 17.9849 25.8515 19.4543C25.8515 20.9235 25.2679 22.3327 24.2289 23.3717C23.1899 24.4107 21.7808 24.9943 20.3114 24.9943C18.8421 24.9943 17.433 24.4107 16.394 23.3717C15.355 22.3327 14.7713 20.9235 14.7713 19.4543C14.7713 17.9849 15.355 16.5758 16.394 15.5368ZM28.9711 12.6243C28.9711 13.0448 28.804 13.4482 28.5068 13.7455C28.2094 14.0429 27.806 14.21 27.3855 14.21C26.9649 14.21 26.5616 14.0429 26.2643 13.7455C25.9669 13.4482 25.7998 13.0448 25.7998 12.6243C25.7998 12.2037 25.9669 11.8004 26.2643 11.5031C26.5616 11.2057 26.9649 11.0386 27.3855 11.0386C27.806 11.0386 28.2094 11.2057 28.5068 11.5031C28.804 11.8004 28.9711 12.2037 28.9711 12.6243Z" stroke="white" stroke-linejoin="round"/>
</svg>
