<svg width="72" height="70" viewBox="0 0 72 70" fill="none" xmlns="http://www.w3.org/2000/svg">
<ellipse cx="36" cy="35" rx="35.5738" ry="35" fill="#1AACF0"/>
<path d="M22.09 28.6484C22.1582 27.158 22.3915 26.1968 22.7071 25.3809L22.7114 25.3696C23.0241 24.5393 23.5141 23.7872 24.1471 23.1655L24.1559 23.1567L24.1647 23.1479C24.7869 22.514 25.5393 22.0246 26.3688 21.7127L26.3832 21.7072C27.1972 21.3906 28.1566 21.1581 29.6482 21.0899M22.09 28.6484C22.0183 30.2409 22 30.7345 22 34.8634C22 38.9931 22.0173 39.4855 22.0899 41.0783M22.09 28.6484V29.0501M22.7127 44.3578C23.0246 45.1873 23.514 45.9397 24.1479 46.562L24.1567 46.5707L24.1654 46.5795C24.7872 47.2125 25.5393 47.7025 26.3696 48.0152L26.382 48.0198C27.1968 48.3359 28.1566 48.5685 29.6482 48.6367M22.7127 44.3578L22.7072 44.3434C22.3906 43.5294 22.1581 42.5701 22.0899 41.0783M22.7127 44.3578L22.694 44.2592M22.0899 41.0783L22.1144 41.207M22.0899 41.0783V40.6757M22.694 44.2592L22.1144 41.207M22.694 44.2592C22.4478 43.609 22.1943 42.7015 22.1144 41.207M22.694 44.2592C22.7026 44.2821 22.7112 44.3046 22.7199 44.3268C23.032 45.1684 23.5267 45.9305 24.1683 46.5582C24.7958 47.1997 25.5576 47.6942 26.3989 48.0064C27.0741 48.2694 28.0255 48.5443 29.648 48.6186C31.2854 48.6932 31.7913 48.7083 35.8633 48.7083C39.9354 48.7083 40.4417 48.6932 42.0791 48.6186C43.7035 48.5441 44.6538 48.2678 45.3267 48.0069C46.1684 47.6948 46.9307 47.2 47.5584 46.5582C48.1997 45.9306 48.6943 45.169 49.0065 44.3276C49.2694 43.6524 49.5443 42.7012 49.6185 41.0786C49.6931 39.4412 49.7084 38.9343 49.7084 34.8634C49.7084 30.7923 49.6931 30.285 49.6185 28.6476C49.5437 27.0146 49.2649 26.0629 49.0027 25.3895C48.66 24.5047 48.2254 23.8355 47.5573 23.1675C46.8906 22.5021 46.2233 22.0672 45.3378 21.7241C44.662 21.4599 43.7097 21.1827 42.0791 21.108C41.9372 21.1016 41.8039 21.0956 41.676 21.09M22.1144 41.207C22.1121 41.1648 22.11 41.1222 22.108 41.0791C22.1016 40.9372 22.0955 40.8037 22.0899 40.6757M29.6482 21.0899C31.241 21.0173 31.7345 21 35.8633 21C39.9921 21 40.4853 21.0183 42.0776 21.09M29.6482 21.0899H30.0509M42.0776 21.09H41.676M42.0776 21.09C43.5684 21.1581 44.5297 21.3915 45.3458 21.7071L45.357 21.7114C46.1872 22.0241 46.9394 22.5141 47.5611 23.1471L47.5697 23.1559L47.5786 23.1645C48.2117 23.7862 48.7015 24.5386 49.0141 25.3691L49.0193 25.3832C49.3359 26.1972 49.5685 27.1566 49.6366 28.6482M30.0509 21.0899L41.676 21.09M30.0509 21.0899C31.3997 21.031 32.1452 21.0183 35.8633 21.0183C39.5817 21.0183 40.3271 21.031 41.676 21.09M30.0509 21.0899C29.9229 21.0955 29.7895 21.1016 29.6476 21.108C28.023 21.1825 27.0728 21.4589 26.4 21.7198C25.555 22.033 24.7902 22.5303 24.1612 23.1756C23.4994 23.8402 23.0662 24.5062 22.7242 25.3887C22.4599 26.0645 22.1827 27.0173 22.108 28.648C22.1016 28.7895 22.0956 28.9225 22.09 29.0501M49.6366 41.0783C49.5685 42.5699 49.3359 43.5298 49.0199 44.3446L49.0152 44.357C48.7024 45.1873 48.2126 45.9394 47.5795 46.5611L47.5706 46.5698L47.562 46.5787C46.9397 47.2125 46.1874 47.7019 45.3577 48.0139L45.3434 48.0194C44.5294 48.336 43.57 48.5685 42.0784 48.6367M22.0899 40.6757C22.031 39.3269 22.0183 38.5814 22.0183 34.8634C22.0183 31.144 22.031 30.3996 22.09 29.0501M22.0899 40.6757L22.09 29.0501M33.3976 40.816C34.1793 41.1397 35.0171 41.3064 35.8633 41.3064C37.5721 41.3064 39.211 40.6276 40.4194 39.4193C41.6276 38.211 42.3065 36.5721 42.3065 34.8634C42.3065 33.1545 41.6276 31.5156 40.4194 30.3073C39.211 29.099 37.5721 28.4201 35.8633 28.4201C35.0171 28.4201 34.1793 28.5868 33.3976 28.9106C32.6158 29.2344 31.9056 29.709 31.3073 30.3073C30.709 30.9056 30.2344 31.6159 29.9106 32.3976C29.5868 33.1793 29.4202 34.0172 29.4202 34.8634C29.4202 35.7095 29.5868 36.5473 29.9106 37.329C30.2344 38.1108 30.709 38.821 31.3073 39.4193C31.9056 40.0175 32.6158 40.4922 33.3976 40.816ZM31.293 30.2929C32.5051 29.0808 34.1491 28.3998 35.8633 28.3998C37.5775 28.3998 39.2215 29.0808 40.4337 30.2929C41.6458 31.5051 42.3267 33.1491 42.3267 34.8634C42.3267 36.5775 41.6458 38.2215 40.4337 39.4336C39.2215 40.6458 37.5775 41.3267 35.8633 41.3267C34.1491 41.3267 32.5051 40.6458 31.293 39.4336C30.0808 38.2215 29.3999 36.5775 29.3999 34.8634C29.3999 33.1491 30.0808 31.5051 31.293 30.2929ZM45.9663 26.895C45.9663 27.3856 45.7713 27.8562 45.4245 28.2031C45.0776 28.5501 44.607 28.745 44.1164 28.745C43.6257 28.745 43.1552 28.5501 42.8083 28.2031C42.4613 27.8562 42.2664 27.3856 42.2664 26.895C42.2664 26.4044 42.4613 25.9338 42.8083 25.5869C43.1552 25.24 43.6257 25.0451 44.1164 25.0451C44.607 25.0451 45.0776 25.24 45.4245 25.5869C45.7713 25.9338 45.9663 26.4044 45.9663 26.895Z" stroke="white" stroke-linejoin="round"/>
</svg>
