<svg width="70" height="70" viewBox="0 0 70 70" fill="none" xmlns="http://www.w3.org/2000/svg">
<circle cx="35" cy="35" r="35" fill="#1AACF0"/>
<path d="M49.0833 22.0613V46.9387C49.0833 47.5074 48.8573 48.053 48.4551 48.4552C48.053 48.8574 47.5075 49.0833 46.9387 49.0833H22.0612C21.4924 49.0833 20.947 48.8574 20.5448 48.4552C20.1426 48.053 19.9166 47.5074 19.9166 46.9387V22.0613C19.9166 21.4925 20.1426 20.947 20.5448 20.5448C20.947 20.1426 21.4924 19.9167 22.0612 19.9167H46.9387C47.5075 19.9167 48.053 20.1426 48.4551 20.5448C48.8573 20.947 49.0833 21.4925 49.0833 22.0613ZM28.4951 31.0686H24.2058V44.7941H28.4951V31.0686ZM28.8811 26.3505C28.8833 26.026 28.8217 25.7043 28.6996 25.4037C28.5775 25.1031 28.3974 24.8295 28.1696 24.5985C27.9418 24.3675 27.6707 24.1836 27.3718 24.0573C27.0729 23.9311 26.7521 23.865 26.4277 23.8627H26.3504C25.6907 23.8627 25.0579 24.1248 24.5913 24.5914C24.1248 25.0579 23.8627 25.6907 23.8627 26.3505C23.8627 27.0103 24.1248 27.643 24.5913 28.1096C25.0579 28.5761 25.6907 28.8382 26.3504 28.8382C26.6749 28.8462 26.9978 28.7902 27.3006 28.6733C27.6034 28.5565 27.8802 28.3811 28.1152 28.1573C28.3502 27.9334 28.5388 27.6655 28.6702 27.3687C28.8017 27.0719 28.8733 26.7522 28.8811 26.4277V26.3505ZM44.7941 36.4559C44.7941 32.3297 42.1691 30.7255 39.5613 30.7255C38.7074 30.6827 37.8572 30.8646 37.0955 31.2529C36.334 31.6412 35.6874 32.2225 35.2206 32.9387H35.1004V31.0686H31.0686V44.7941H35.3578V37.4938C35.2958 36.7463 35.5313 36.0043 36.0132 35.4292C36.495 34.8542 37.1844 34.4926 37.9313 34.4228H38.0944C39.4583 34.4228 40.4706 35.2806 40.4706 37.4423V44.7941H44.7598L44.7941 36.4559Z" stroke="white" stroke-linejoin="round"/>
</svg>
