<svg width="18" height="15" viewBox="0 0 18 15" fill="none" xmlns="http://www.w3.org/2000/svg">
<g clip-path="url(#clip0_54_115)">
<path d="M7.42651 8.12498C7.73201 8.48381 8.12176 8.78072 8.56934 8.99557C9.01692 9.21041 9.51186 9.33818 10.0206 9.37019C10.5293 9.4022 11.0399 9.33771 11.5178 9.18109C11.9956 9.02448 12.4296 8.7794 12.7901 8.46248L14.9242 6.58748C15.5721 5.9981 15.9306 5.20871 15.9225 4.38935C15.9144 3.56998 15.5403 2.7862 14.8809 2.2068C14.2214 1.6274 13.3293 1.29874 12.3968 1.29162C11.4642 1.2845 10.5657 1.59948 9.89492 2.16873L8.67138 3.23748" stroke="white" stroke-width="2" stroke-linecap="round" stroke-linejoin="round"/>
<path d="M10.2719 6.87502C9.96643 6.51619 9.57668 6.21928 9.1291 6.00443C8.68152 5.78958 8.18659 5.66182 7.67786 5.62981C7.16914 5.5978 6.65854 5.66229 6.18068 5.81891C5.70282 5.97552 5.26889 6.2206 4.90831 6.53752L2.77425 8.41252C2.12635 9.0019 1.76785 9.79128 1.77595 10.6106C1.78406 11.43 2.15812 12.2138 2.81757 12.7932C3.47703 13.3726 4.36911 13.7013 5.30169 13.7084C6.23426 13.7155 7.13271 13.4005 7.80353 12.8313L9.01994 11.7625" stroke="white" stroke-width="2" stroke-linecap="round" stroke-linejoin="round"/>
</g>
<defs>
<clipPath id="clip0_54_115">
<rect width="17.0725" height="15" fill="white" transform="translate(0.312988)"/>
</clipPath>
</defs>
</svg>
