<svg width="39" height="40" viewBox="0 0 39 40" fill="none" xmlns="http://www.w3.org/2000/svg">
<path d="M0 5C0 2.23858 2.23858 0 5 0H40V35C40 37.7614 37.7614 40 35 40H0V5Z" fill="#1AACF0"/>
<path d="M32.5 9.33824V30.6617C32.5 31.1492 32.3063 31.6169 31.9615 31.9616C31.6169 32.3064 31.1493 32.5 30.6618 32.5H9.33824C8.8507 32.5 8.38314 32.3064 8.0384 31.9616C7.69368 31.6169 7.5 31.1492 7.5 30.6617V9.33824C7.5 8.8507 7.69368 8.38314 8.0384 8.03841C8.38314 7.69368 8.8507 7.5 9.33824 7.5H30.6618C31.1493 7.5 31.6169 7.69368 31.9615 8.03841C32.3063 8.38314 32.5 8.8507 32.5 9.33824ZM14.8529 17.0588H11.1765V28.8235H14.8529V17.0588ZM15.1838 13.0147C15.1858 12.7366 15.1329 12.4609 15.0283 12.2032C14.9236 11.9455 14.7693 11.711 14.574 11.513C14.3787 11.315 14.1464 11.1574 13.8902 11.0492C13.634 10.941 13.359 10.8843 13.0809 10.8824H13.0147C12.4492 10.8824 11.9068 11.107 11.5069 11.5069C11.107 11.9068 10.8824 12.4492 10.8824 13.0147C10.8824 13.5802 11.107 14.1226 11.5069 14.5225C11.9068 14.9224 12.4492 15.1471 13.0147 15.1471C13.2928 15.1539 13.5696 15.1059 13.8291 15.0057C14.0887 14.9056 14.3259 14.7553 14.5274 14.5634C14.7288 14.3715 14.8905 14.1418 15.0031 13.8875C15.1157 13.6331 15.1771 13.359 15.1838 13.0809V13.0147ZM28.8235 21.6765C28.8235 18.1397 26.5735 16.7647 24.3383 16.7647C23.6064 16.7281 22.8777 16.8839 22.2248 17.2168C21.572 17.5496 21.0178 18.0479 20.6177 18.6618H20.5147V17.0588H17.0588V28.8235H20.7353V22.5661C20.6822 21.9254 20.884 21.2894 21.297 20.7965C21.71 20.3036 22.3009 19.9936 22.9412 19.9339H23.0809C24.25 19.9339 25.1177 20.6691 25.1177 22.522V28.8235H28.7942L28.8235 21.6765Z" stroke="white" stroke-linejoin="round"/>
</svg>
