<svg width="72" height="70" viewBox="0 0 72 70" fill="none" xmlns="http://www.w3.org/2000/svg">
<ellipse cx="36" cy="35" rx="35.5738" ry="35" fill="#1AACF0"/>
<path d="M51.0833 41.675V46.05C51.085 46.4561 51.0018 46.8581 50.8391 47.2303C50.6764 47.6024 50.4377 47.9365 50.1384 48.211C49.8392 48.4856 49.4858 48.6946 49.1011 48.8248C48.7163 48.9549 48.3087 49.0032 47.9042 48.9666C43.4166 48.479 39.106 46.9456 35.3187 44.4896C31.7952 42.2505 28.8078 39.2631 26.5687 35.7396C24.1041 31.9351 22.5704 27.6035 22.0917 23.0958C22.0552 22.6925 22.1031 22.2861 22.2324 21.9023C22.3616 21.5186 22.5694 21.166 22.8424 20.8669C23.1154 20.5679 23.4476 20.3289 23.818 20.1653C24.1884 20.0017 24.5888 19.917 24.9937 19.9166H29.3687C30.0765 19.9097 30.7626 20.1603 31.2992 20.6218C31.8359 21.0833 32.1864 21.7242 32.2854 22.425C32.4701 23.8251 32.8125 25.1998 33.3062 26.5229C33.5025 27.0449 33.5449 27.6121 33.4286 28.1575C33.3123 28.7029 33.0421 29.2035 32.65 29.6L30.7979 31.4521C32.8739 35.1031 35.8969 38.126 39.5479 40.2021L41.4 38.35C41.7965 37.9579 42.2971 37.6877 42.8425 37.5714C43.3878 37.4551 43.9551 37.4975 44.4771 37.6937C45.8002 38.1874 47.1749 38.5299 48.575 38.7146C49.2834 38.8145 49.9304 39.1713 50.3929 39.7172C50.8553 40.263 51.1011 40.9598 51.0833 41.675Z" stroke="white" stroke-linecap="round" stroke-linejoin="round"/>
</svg>
