<svg width="336" height="209" viewBox="0 0 336 209" fill="none" xmlns="http://www.w3.org/2000/svg">
<g clip-path="url(#clip0_39_62)">
<path d="M325.294 177.024C322.076 188.833 312.681 197.099 302.88 204.121C301.512 205.102 300.143 206.06 298.773 206.996C298.764 207 298.755 207.009 298.745 207.013C298.679 207.058 298.613 207.103 298.552 207.148C298.269 207.341 297.987 207.534 297.706 207.724L297.86 207.797C297.86 207.797 298.011 207.882 297.846 207.811C297.797 207.789 297.745 207.77 297.696 207.748C292.002 205.319 286.208 202.71 281.844 198.16C277.318 193.434 274.673 186.022 277.124 179.814C277.446 179.001 277.853 178.228 278.337 177.51C278.536 177.209 278.75 176.921 278.973 176.639C280.325 174.893 282.092 173.56 284.092 172.776C286.093 171.993 288.254 171.787 290.355 172.18C292.456 172.573 294.419 173.551 296.044 175.013C297.669 176.475 298.896 178.369 299.6 180.499C300.32 173.407 294.792 167.467 289.472 163.083C284.15 158.702 278.102 153.931 277.073 146.878C276.499 142.954 277.789 139.152 280.138 136.099C280.211 136.006 280.284 135.914 280.359 135.823C283.219 132.268 287.242 129.985 291.624 129.43C299.785 128.533 307.712 133.102 313.641 139.105C323.183 148.763 328.952 163.597 325.294 177.024Z" fill="#F2F2F2"/>
<path d="M309.955 161.578C311.521 164.156 312.723 166.961 313.524 169.906C314.201 172.538 314.503 175.263 314.418 177.989C314.2 183.6 312.711 189.073 310.077 193.948C308.093 197.646 305.675 201.064 302.88 204.121C301.512 205.102 300.143 206.06 298.773 206.996C298.764 207 298.755 207.009 298.745 207.013C298.679 207.058 298.613 207.103 298.552 207.148C298.269 207.341 297.987 207.534 297.706 207.724C297.706 207.724 298.012 207.882 297.846 207.811C297.797 207.789 297.745 207.77 297.696 207.748C298.207 203.322 297.707 198.831 296.238 194.652C294.77 190.472 292.376 186.726 289.258 183.727C286.131 180.773 282.389 178.643 278.337 177.51C278.536 177.209 278.75 176.921 278.973 176.639C280.538 177.103 282.061 177.713 283.525 178.461C288.757 181.119 293.04 185.488 295.742 190.921C298.167 195.855 299.21 201.419 298.75 206.958C298.984 206.734 299.218 206.505 299.445 206.278C303.772 202.011 307.615 197.113 310.216 191.46C312.472 186.673 313.581 181.373 313.445 176.026C313.232 170.195 311.036 164.795 307.857 160.093C304.372 155.077 300.256 150.589 295.621 146.753C290.951 142.796 285.841 139.459 280.404 136.815C280.281 136.754 280.185 136.646 280.136 136.513C280.086 136.38 280.087 136.231 280.138 136.099C280.175 135.98 280.254 135.881 280.359 135.823C280.413 135.799 280.471 135.787 280.53 135.79C280.589 135.792 280.646 135.809 280.698 135.838C281.369 136.165 282.036 136.497 282.697 136.842C288.205 139.722 293.353 143.315 298.023 147.537C302.534 151.606 306.781 156.254 309.955 161.578Z" fill="white"/>
<path d="M194.864 107.004C195.53 106.748 196.135 106.342 196.636 105.812C197.137 105.283 197.523 104.643 197.765 103.939C198.008 103.235 198.101 102.483 198.039 101.737C197.977 100.99 197.762 100.267 197.407 99.6184L208.663 85.8328L199.789 84.611L190.461 97.8893C189.47 98.5918 188.758 99.6544 188.458 100.876C188.159 102.097 188.293 103.392 188.836 104.515C189.378 105.639 190.292 106.513 191.403 106.971C192.514 107.43 193.745 107.442 194.864 107.004H194.864Z" fill="#FFB8B8"/>
<path d="M258.309 109.917C258.776 109.353 259.121 108.688 259.319 107.969C259.517 107.249 259.563 106.493 259.454 105.752C259.346 105.011 259.085 104.305 258.69 103.683C258.296 103.06 257.777 102.537 257.171 102.15L260.749 84.3311L252.418 87.7866L250.298 104.178C249.75 105.298 249.61 106.593 249.904 107.815C250.198 109.038 250.906 110.104 251.894 110.812C252.881 111.519 254.08 111.819 255.262 111.654C256.445 111.489 257.529 110.871 258.309 109.917Z" fill="#FFB8B8"/>
<path d="M217.994 202.78L212.086 202.78L209.276 178.675L217.995 178.675L217.994 202.78Z" fill="#FFB8B8"/>
<path d="M219.5 208.838L200.452 208.837V208.583C200.452 207.553 200.644 206.533 201.016 205.581C201.389 204.63 201.935 203.765 202.623 203.037C203.312 202.308 204.129 201.731 205.029 201.336C205.928 200.942 206.892 200.739 207.866 200.739H207.867L219.501 200.74L219.5 208.838Z" fill="#2F2E41"/>
<path d="M246.906 202.78L240.999 202.78L238.188 178.675L246.907 178.675L246.906 202.78Z" fill="#FFB8B8"/>
<path d="M248.413 208.838L229.364 208.837V208.583C229.364 207.553 229.556 206.533 229.928 205.581C230.301 204.63 230.847 203.765 231.536 203.037C232.224 202.308 233.042 201.731 233.941 201.336C234.841 200.942 235.805 200.739 236.778 200.739H236.779L248.413 200.74L248.413 208.838Z" fill="#2F2E41"/>
<path d="M218.609 190.193L210.247 189.839C209.676 189.813 209.138 189.551 208.749 189.109C208.36 188.667 208.15 188.081 208.166 187.477L210.522 105.723L210.676 105.664C225.333 100.056 237.458 100.48 247.744 106.959L247.859 107.032L249.271 186.657C249.276 186.962 249.224 187.265 249.118 187.548C249.011 187.831 248.852 188.089 248.651 188.307C248.449 188.524 248.208 188.697 247.942 188.815C247.676 188.933 247.391 188.994 247.103 188.994H240.051C239.549 188.993 239.062 188.808 238.674 188.471C238.286 188.133 238.021 187.664 237.923 187.143L228.317 135.449C228.284 135.27 228.192 135.11 228.057 134.997C227.922 134.884 227.753 134.825 227.581 134.832C227.409 134.839 227.245 134.91 227.118 135.033C226.992 135.157 226.911 135.324 226.89 135.504L220.849 188.178C220.782 188.733 220.527 189.244 220.131 189.615C219.734 189.986 219.224 190.192 218.695 190.195C218.667 190.195 218.638 190.194 218.609 190.193Z" fill="#2F2E41"/>
<path d="M226.745 34.0272C233.282 34.0272 238.58 28.4217 238.58 21.507C238.58 14.5924 233.282 8.98691 226.745 8.98691C220.209 8.98691 214.91 14.5924 214.91 21.507C214.91 28.4217 220.209 34.0272 226.745 34.0272Z" fill="#FFB8B8"/>
<path d="M198.864 97.0525C198.453 96.881 198.102 96.5813 197.856 96.1931L195.569 92.5731C195.323 92.1805 195.196 91.7173 195.206 91.246C195.216 90.7747 195.363 90.3181 195.627 89.938L204.846 76.7007L210.622 47.3842C210.954 46.4788 211.451 45.6515 212.086 44.9496C212.72 44.2478 213.479 43.6851 214.32 43.2939C215.16 42.9026 216.065 42.6904 216.983 42.6693C217.9 42.6483 218.813 42.8188 219.669 43.1712C220.524 43.5236 221.306 44.0509 221.968 44.723C222.631 45.3951 223.162 46.1988 223.531 47.0881C223.9 47.9774 224.099 48.9349 224.118 49.9059C224.137 50.8769 223.975 51.8422 223.64 52.7468L220.911 71.4046C220.083 77.0676 217.339 82.2196 213.189 85.9025L201.053 96.6759C200.82 96.8829 200.548 97.0356 200.255 97.1241C199.962 97.2126 199.655 97.2349 199.353 97.1896C199.185 97.1645 199.021 97.1184 198.864 97.0525Z" fill="#008DFF"/>
<path d="M257.804 98.3808C257.389 98.5391 256.938 98.5597 256.511 98.4399L252.534 97.321C252.103 97.1987 251.719 96.9396 251.432 96.5787C251.145 96.2178 250.97 95.7724 250.931 95.3029L249.583 78.9228L235.608 52.88C235.292 51.9683 235.149 50.9997 235.187 50.0295C235.225 49.0593 235.444 48.1066 235.83 47.2258C236.217 46.345 236.763 45.5534 237.439 44.8963C238.115 44.2391 238.906 43.7292 239.768 43.3959C240.63 43.0625 241.546 42.9121 242.463 42.9534C243.38 42.9946 244.281 43.2266 245.113 43.6361C245.945 44.0457 246.693 44.6248 247.314 45.3402C247.934 46.0557 248.415 46.8935 248.73 47.8058L258.334 63.7189C261.25 68.5481 262.408 74.3334 261.593 79.9984L259.212 96.5677C259.166 96.8863 259.058 97.191 258.893 97.4622C258.728 97.7334 258.512 97.9648 258.257 98.1416C258.116 98.2399 257.963 98.3202 257.804 98.3808Z" fill="#008DFF"/>
<path d="M213.8 43.7412C215.833 41.3829 218.34 39.5375 221.137 38.3412C223.934 37.1449 226.949 36.6281 229.96 36.8291C230.158 36.8421 230.355 36.8567 230.552 36.8729H230.552C233.406 37.1116 236.178 37.9921 238.685 39.4555C241.191 40.9189 243.373 42.9314 245.085 45.3586C246.825 47.8197 248.049 50.6455 248.675 53.6471C249.3 56.6487 249.312 59.7569 248.711 62.764C246.416 74.2559 246.997 86.1825 250.396 97.3642L253.571 107.793C253.673 108.127 253.701 108.482 253.652 108.829C253.604 109.177 253.481 109.508 253.293 109.797C253.105 110.086 252.857 110.326 252.567 110.497C252.278 110.669 251.955 110.768 251.623 110.787L235.391 111.71L231.237 104.12V111.946L211.509 113.068C211.47 113.071 211.431 113.072 211.392 113.072C211.093 113.071 210.796 113.006 210.522 112.879C210.248 112.751 210.002 112.566 209.799 112.333C209.596 112.1 209.441 111.825 209.343 111.526C209.245 111.227 209.207 110.909 209.231 110.593L211.461 81.3427L208.664 61.4761C208.212 58.3019 208.438 55.0607 209.327 51.9913C210.215 48.9219 211.744 46.1026 213.8 43.7412Z" fill="#008DFF"/>
<path d="M234.971 33.4593C233.875 34.1263 229.544 34.5685 229.235 33.2716L229.228 33.2431C229.014 32.2928 229.192 31.3006 229.254 30.3257C229.315 29.3508 229.225 28.2799 228.597 27.5631C227.427 26.227 225.346 26.9353 223.654 26.5975C222.663 26.3635 221.787 25.7555 221.189 24.8873C220.591 24.0191 220.313 22.9503 220.406 21.8807C220.43 21.6781 220.468 21.4752 220.511 21.2725C220.616 20.7589 220.608 20.2262 220.487 19.7165C220.365 19.2067 220.134 18.7337 219.81 18.3346C219.487 17.9354 219.08 17.621 218.623 17.416C218.165 17.211 217.669 17.121 217.173 17.153C215.463 17.2564 213.617 17.8044 212.203 16.4648C211.109 15.4288 210.842 12.7322 211.323 11.2646C212.13 8.79824 217.305 7.50706 219.564 6.79726C222.358 5.94327 225.296 5.75864 228.166 6.2568C231.036 6.75496 233.765 7.92339 236.155 9.67715C237.582 10.7411 238.914 12.078 239.522 13.8091C240.131 15.5402 239.837 17.7242 238.466 18.8669C239.529 20.0576 240.277 21.5228 240.636 23.1159C240.996 24.709 240.953 26.3739 240.512 27.9439C239.834 30.2528 236.602 32.4665 234.971 33.4593Z" fill="#2F2E41"/>
<path d="M128.178 70.3463H21.6843C21.5565 70.3463 21.4339 70.2926 21.3435 70.197C21.2532 70.1014 21.2024 69.9718 21.2024 69.8366C21.2024 69.7014 21.2532 69.5717 21.3435 69.4761C21.4339 69.3805 21.5565 69.3268 21.6843 69.3268H128.178C128.306 69.3268 128.428 69.3805 128.519 69.4761C128.609 69.5717 128.66 69.7014 128.66 69.8366C128.66 69.9718 128.609 70.1014 128.519 70.197C128.428 70.2926 128.306 70.3463 128.178 70.3463Z" fill="#E6E6E6"/>
<path d="M104.855 70.3463H44.3323C44.2045 70.3463 44.0819 70.2926 43.9915 70.197C43.9012 70.1014 43.8504 69.9718 43.8504 69.8366C43.8504 69.7014 43.9012 69.5717 43.9915 69.4761C44.0819 69.3805 44.2045 69.3268 44.3323 69.3268H104.855C104.983 69.3268 105.105 69.3805 105.195 69.4761C105.286 69.5717 105.337 69.7014 105.337 69.8366C105.337 69.9718 105.286 70.1014 105.195 70.197C105.105 70.2926 104.983 70.3463 104.855 70.3463Z" fill="#3F3D56"/>
<path d="M75.1721 70.3463C75.0443 70.3463 74.9218 70.2926 74.8314 70.197C74.741 70.1014 74.6902 69.9718 74.6902 69.8366V37.7219C74.6902 37.5867 74.741 37.4571 74.8314 37.3615C74.9218 37.2659 75.0443 37.2122 75.1721 37.2122C75.2999 37.2122 75.4225 37.2659 75.5129 37.3615C75.6032 37.4571 75.654 37.5867 75.654 37.7219V69.8366C75.654 69.9718 75.6032 70.1014 75.5128 70.197C75.4225 70.2926 75.2999 70.3463 75.1721 70.3463Z" fill="#3F3D56"/>
<path d="M105.53 70.3463C105.402 70.3463 105.28 70.2926 105.189 70.197C105.099 70.1014 105.048 69.9718 105.048 69.8366V5.60732C105.048 5.47213 105.099 5.34247 105.189 5.24687C105.28 5.15127 105.402 5.09756 105.53 5.09756C105.658 5.09756 105.781 5.15127 105.871 5.24687C105.961 5.34247 106.012 5.47213 106.012 5.60732V69.8366C106.012 69.9718 105.961 70.1014 105.871 70.197C105.781 70.2926 105.658 70.3463 105.53 70.3463Z" fill="#3F3D56"/>
<path d="M5.3006 11.2146C8.22804 11.2146 10.6012 8.70415 10.6012 5.60732C10.6012 2.51048 8.22804 0 5.3006 0C2.37316 0 0 2.51048 0 5.60732C0 8.70415 2.37316 11.2146 5.3006 11.2146Z" fill="#E6E6E6"/>
<path d="M5.3006 43.3293C8.22804 43.3293 10.6012 40.8188 10.6012 37.722C10.6012 34.6251 8.22804 32.1146 5.3006 32.1146C2.37316 32.1146 0 34.6251 0 37.722C0 40.8188 2.37316 43.3293 5.3006 43.3293Z" fill="#E6E6E6"/>
<path d="M5.3006 75.4439C8.22804 75.4439 10.6012 72.9334 10.6012 69.8366C10.6012 66.7398 8.22804 64.2293 5.3006 64.2293C2.37316 64.2293 0 66.7398 0 69.8366C0 72.9334 2.37316 75.4439 5.3006 75.4439Z" fill="#E6E6E6"/>
<path d="M128.178 6.11708H21.6843C21.5565 6.11708 21.4339 6.06336 21.3435 5.96777C21.2532 5.87217 21.2024 5.74252 21.2024 5.60732C21.2024 5.47213 21.2532 5.34247 21.3435 5.24687C21.4339 5.15127 21.5565 5.09756 21.6843 5.09756H128.178C128.306 5.09756 128.428 5.15127 128.519 5.24687C128.609 5.34247 128.66 5.47213 128.66 5.60732C128.66 5.74252 128.609 5.87217 128.519 5.96777C128.428 6.06336 128.306 6.11708 128.178 6.11708Z" fill="#E6E6E6"/>
<path d="M128.178 38.2317H21.6843C21.5565 38.2317 21.4339 38.178 21.3435 38.0824C21.2532 37.9868 21.2024 37.8571 21.2024 37.7219C21.2024 37.5867 21.2532 37.4571 21.3435 37.3615C21.4339 37.2659 21.5565 37.2122 21.6843 37.2122H128.178C128.306 37.2122 128.428 37.2659 128.519 37.3615C128.609 37.4571 128.66 37.5867 128.66 37.7219C128.66 37.8571 128.609 37.9868 128.519 38.0824C128.428 38.178 128.306 38.2317 128.178 38.2317Z" fill="#E6E6E6"/>
<path d="M44.5732 75.4439C47.5007 75.4439 49.8738 72.9334 49.8738 69.8366C49.8738 66.7398 47.5007 64.2293 44.5732 64.2293C41.6458 64.2293 39.2726 66.7398 39.2726 69.8366C39.2726 72.9334 41.6458 75.4439 44.5732 75.4439Z" fill="#008DFF"/>
<path d="M75.1722 43.3293C78.0996 43.3293 80.4728 40.8188 80.4728 37.722C80.4728 34.6251 78.0996 32.1146 75.1722 32.1146C72.2447 32.1146 69.8716 34.6251 69.8716 37.722C69.8716 40.8188 72.2447 43.3293 75.1722 43.3293Z" fill="#008DFF"/>
<path d="M75.1722 75.4439C78.0996 75.4439 80.4728 72.9334 80.4728 69.8366C80.4728 66.7398 78.0996 64.2293 75.1722 64.2293C72.2447 64.2293 69.8716 66.7398 69.8716 69.8366C69.8716 72.9334 72.2447 75.4439 75.1722 75.4439Z" fill="#008DFF"/>
<path d="M105.53 11.2146C108.458 11.2146 110.831 8.70415 110.831 5.60732C110.831 2.51048 108.458 0 105.53 0C102.603 0 100.23 2.51048 100.23 5.60732C100.23 8.70415 102.603 11.2146 105.53 11.2146Z" fill="#008DFF"/>
<path d="M105.53 43.3293C108.458 43.3293 110.831 40.8188 110.831 37.722C110.831 34.6251 108.458 32.1146 105.53 32.1146C102.603 32.1146 100.23 34.6251 100.23 37.722C100.23 40.8188 102.603 43.3293 105.53 43.3293Z" fill="#008DFF"/>
<path d="M105.53 75.4439C108.458 75.4439 110.831 72.9334 110.831 69.8366C110.831 66.7398 108.458 64.2293 105.53 64.2293C102.603 64.2293 100.23 66.7398 100.23 69.8366C100.23 72.9334 102.603 75.4439 105.53 75.4439Z" fill="#008DFF"/>
<path d="M335.518 209H123.976C123.848 209 123.726 208.946 123.635 208.851C123.545 208.755 123.494 208.625 123.494 208.49C123.494 208.355 123.545 208.225 123.635 208.13C123.726 208.034 123.848 207.98 123.976 207.98H335.518C335.646 207.98 335.769 208.034 335.859 208.13C335.949 208.225 336 208.355 336 208.49C336 208.625 335.949 208.755 335.859 208.851C335.769 208.946 335.646 209 335.518 209Z" fill="#3F3D56"/>
<path d="M156.609 163.659C156.289 163.641 155.968 163.632 155.645 163.632C150.788 163.632 146.131 165.673 142.697 169.305C139.263 172.938 137.334 177.865 137.334 183.002H156.609V163.659Z" fill="#008DFF"/>
<path d="M160.464 209C155.481 208.994 150.704 206.898 147.181 203.171C143.658 199.444 141.676 194.39 141.671 189.12C141.671 188.984 141.721 188.855 141.812 188.759C141.902 188.663 142.025 188.61 142.152 188.61H160.945V169.776C160.945 169.706 160.959 169.638 160.985 169.574C161.01 169.511 161.048 169.454 161.096 169.406C161.143 169.358 161.199 169.321 161.26 169.297C161.321 169.273 161.387 169.262 161.452 169.267C166.344 169.539 170.942 171.822 174.266 175.628C177.591 179.434 179.379 184.462 179.25 189.643C179.121 194.823 177.085 199.745 173.576 203.361C170.067 206.977 165.362 209 160.464 209ZM142.641 189.629C142.734 193.271 143.822 196.807 145.774 199.809C147.726 202.811 150.459 205.15 153.641 206.544C156.823 207.939 160.318 208.328 163.705 207.666C167.092 207.003 170.225 205.317 172.725 202.812C175.226 200.306 176.986 197.088 177.795 193.546C178.603 190.004 178.425 186.291 177.281 182.854C176.137 179.418 174.076 176.405 171.348 174.181C168.62 171.956 165.342 170.615 161.909 170.32V189.12C161.909 189.255 161.858 189.384 161.768 189.48C161.678 189.576 161.555 189.629 161.427 189.629H142.641Z" fill="#3F3D56"/>
</g>
<defs>
<clipPath id="clip0_39_62">
<rect width="336" height="209" fill="white"/>
</clipPath>
</defs>
</svg>
